<svg xmlns="http://www.w3.org/2000/svg" viewBox="0 0 170.69 47.48"><defs><style>.cls-1{fill:#fff;}.cls-2{isolation:isolate;}</style></defs><title>Marketo-AC-AllWhite</title><g id="Layer_2" data-name="Layer 2"><g id="Layer_1-2" data-name="Layer 1"><path class="cls-1" d="M44.25,41.13l-1.07,3a.12.12,0,0,1-.12.09h-1q-.12,0-.09-.12l3.23-9c0-.06,0-.12.06-.2a2.35,2.35,0,0,0,0-.4.07.07,0,0,1,.07-.08h1.46s.07,0,.08.08l3.48,9.6c0,.07,0,.11-.06.11H49.21a.14.14,0,0,1-.12-.08l-1.08-3ZM47.67,40l-.33-1c-.15-.41-.3-.84-.46-1.29l-.44-1.28c-.14-.42-.24-.76-.31-1h0c0,.24-.14.53-.25.88l-.39,1.14L45,38.72c-.16.44-.3.86-.44,1.27Z"/><path class="cls-1" d="M51.65,38.69v-.43c0-.16,0-.32,0-.46s0-.29,0-.42,0-.22,0-.28a.08.08,0,0,1,.09-.09h.92a.14.14,0,0,1,.13.09,1.54,1.54,0,0,1,.05.3c0,.13,0,.27,0,.44a3.12,3.12,0,0,1,2.27-1,3,3,0,0,1,.82.12,2,2,0,0,1,.78.44,2.37,2.37,0,0,1,.58.87,3.85,3.85,0,0,1,.23,1.43V44.1c0,.07,0,.11-.1.11h-1c-.07,0-.1,0-.1-.12V39.84a2.33,2.33,0,0,0-.37-1.36A1.32,1.32,0,0,0,54.73,38a2.23,2.23,0,0,0-1,.24,2.57,2.57,0,0,0-.82.66V44.1c0,.07,0,.11-.09.11h-1c-.06,0-.09,0-.09-.11Z"/><path class="cls-1" d="M64.36,41.13l-1.07,3a.12.12,0,0,1-.12.09h-1c-.07,0-.1,0-.08-.12l3.22-9c0-.06,0-.12.06-.2a2.08,2.08,0,0,0,0-.4s0-.08.07-.08h1.45a.09.09,0,0,1,.09.08l3.48,9.6c0,.07,0,.11-.06.11H69.32a.14.14,0,0,1-.12-.08l-1.08-3ZM67.78,40c-.08-.24-.19-.56-.34-1L67,37.72c-.16-.44-.3-.87-.44-1.28s-.24-.76-.31-1h0c-.06.24-.14.53-.26.88s-.24.73-.38,1.14-.29.83-.45,1.27-.3.86-.43,1.27Z"/><path class="cls-1" d="M74.85,44.36a4.42,4.42,0,0,1-1.43-.23,3.25,3.25,0,0,1-1.16-.7,3.13,3.13,0,0,1-.78-1.15,4.21,4.21,0,0,1-.28-1.61,3.76,3.76,0,0,1,.29-1.51A3.46,3.46,0,0,1,72.31,38a3.92,3.92,0,0,1,1.27-.8,4.52,4.52,0,0,1,1.64-.29,3.74,3.74,0,0,1,.52,0l.42.06V33.68a.08.08,0,0,1,.09-.09h1.06c.06,0,.09,0,.09.08v9.66a2.31,2.31,0,0,0,0,.37.11.11,0,0,1-.07.11,5.48,5.48,0,0,1-1.26.42A6.63,6.63,0,0,1,74.85,44.36Zm1.31-6.28a1.58,1.58,0,0,0-.43-.11,3.12,3.12,0,0,0-.54,0,3.17,3.17,0,0,0-1.14.2,2.38,2.38,0,0,0-.85.56,2.54,2.54,0,0,0-.55.85,2.9,2.9,0,0,0-.19,1.07,3.24,3.24,0,0,0,.2,1.23A2.25,2.25,0,0,0,74,43.13a3,3,0,0,0,.94.15c.2,0,.4,0,.62,0a2,2,0,0,0,.57-.16Z"/><path class="cls-1" d="M82.36,36.86a3.38,3.38,0,0,1,1.41.29,3,3,0,0,1,1.06.78,3.7,3.7,0,0,1,.67,1.18,4.72,4.72,0,0,1,0,3,3.37,3.37,0,0,1-.69,1.18,3,3,0,0,1-1.07.76,3.37,3.37,0,0,1-1.36.28A3.32,3.32,0,0,1,80.83,44a3.09,3.09,0,0,1-1.06-.86,3.49,3.49,0,0,1-.61-1.2,4.57,4.57,0,0,1-.2-1.36,4.44,4.44,0,0,1,.23-1.47A3.77,3.77,0,0,1,79.87,38a3.31,3.31,0,0,1,1.08-.8A3.38,3.38,0,0,1,82.36,36.86Zm-.06,1.07a1.9,1.9,0,0,0-.86.19,2.12,2.12,0,0,0-.66.54,2.77,2.77,0,0,0-.43.84,3.71,3.71,0,0,0-.15,1.08,3.62,3.62,0,0,0,.15,1.06,2.93,2.93,0,0,0,.42.87,2,2,0,0,0,.68.57,2,2,0,0,0,.94.21,1.87,1.87,0,0,0,.77-.16,1.81,1.81,0,0,0,.67-.48,2.77,2.77,0,0,0,.47-.83,3.51,3.51,0,0,0,.18-1.19,3.66,3.66,0,0,0-.13-1,2.68,2.68,0,0,0-.38-.86,1.94,1.94,0,0,0-1.67-.84Z"/><path class="cls-1" d="M88.42,33.59h.08s0,0,0,.08v3.48a4.15,4.15,0,0,1,1.6-.3,3.62,3.62,0,0,1,1.39.26,3.23,3.23,0,0,1,1.07.73,3.4,3.4,0,0,1,.68,1.09,3.9,3.9,0,0,1,.23,1.39,4.11,4.11,0,0,1-.34,1.75,3.8,3.8,0,0,1-.92,1.26,3.66,3.66,0,0,1-1.31.76,4.64,4.64,0,0,1-1.53.26,8.67,8.67,0,0,1-1-.07,4.43,4.43,0,0,1-1-.23c-.06,0-.09-.05-.09-.13V33.68c0-.06,0-.09.1-.09Zm3.82,6.84a2.54,2.54,0,0,0-.63-1.81,2.16,2.16,0,0,0-1.68-.68,4.32,4.32,0,0,0-.8.07,3.63,3.63,0,0,0-.61.19v5a2.16,2.16,0,0,0,.44.1l.54,0a3,3,0,0,0,1-.18,2.43,2.43,0,0,0,.87-.53,2.8,2.8,0,0,0,.61-.9A3.2,3.2,0,0,0,92.24,40.43Z"/><path class="cls-1" d="M95.89,40.76a3.21,3.21,0,0,0,.15,1,2.12,2.12,0,0,0,.46.8,2.16,2.16,0,0,0,.78.53,2.79,2.79,0,0,0,1.09.2,5,5,0,0,0,.95-.1,4.14,4.14,0,0,0,.9-.3s.07,0,.07,0v.85a.16.16,0,0,1-.07.15,4.13,4.13,0,0,1-.88.31,5.32,5.32,0,0,1-1.21.12A3.79,3.79,0,0,1,96.5,44a2.93,2.93,0,0,1-1.07-.85,3.56,3.56,0,0,1-.6-1.18,5.09,5.09,0,0,1-.18-1.34,4.8,4.8,0,0,1,.22-1.47A3.62,3.62,0,0,1,95.52,38a3,3,0,0,1,1-.82,3,3,0,0,1,1.37-.31,2.71,2.71,0,0,1,2.73,2,3.31,3.31,0,0,1,.16,1c0,.19,0,.35,0,.47a1.68,1.68,0,0,1,0,.3c0,.06,0,.09-.1.09a5.22,5.22,0,0,1-.6,0l-.93,0Zm2.77-.92h.74a.67.67,0,0,0,.21,0,.19.19,0,0,0,0-.08v-.08a2.11,2.11,0,0,0-.07-.5,1.7,1.7,0,0,0-.27-.58,1.79,1.79,0,0,0-.54-.48,1.64,1.64,0,0,0-.86-.2,1.86,1.86,0,0,0-.81.16,1.72,1.72,0,0,0-.59.44,2.32,2.32,0,0,0-.39.62,3.12,3.12,0,0,0-.18.73Z"/><path class="cls-1" d="M112.36,43.93c0,.09,0,.14-.08.15a3.25,3.25,0,0,1-.87.22,9.59,9.59,0,0,1-1.12.06,6.24,6.24,0,0,1-1.83-.28,4.58,4.58,0,0,1-1.6-.89,4.52,4.52,0,0,1-1.14-1.57,5.63,5.63,0,0,1-.44-2.33,5.32,5.32,0,0,1,.37-2,4.72,4.72,0,0,1,1-1.59,4.82,4.82,0,0,1,1.64-1,6.1,6.1,0,0,1,2.15-.37,7.53,7.53,0,0,1,1.2.08,2.78,2.78,0,0,1,.69.19.12.12,0,0,1,.08.12v1c0,.07,0,.09-.11.07a4.19,4.19,0,0,0-1.89-.34,4.28,4.28,0,0,0-1.59.28,3.53,3.53,0,0,0-1.24.78,3.32,3.32,0,0,0-.8,1.22,4.3,4.3,0,0,0-.28,1.6,4.42,4.42,0,0,0,.38,1.93,3.52,3.52,0,0,0,1,1.22,3.8,3.8,0,0,0,1.27.64,4.91,4.91,0,0,0,1.26.18,9.81,9.81,0,0,0,1,0,3.67,3.67,0,0,0,.85-.22q.09,0,.09.06Z"/><path class="cls-1" d="M116.71,36.86a3.38,3.38,0,0,1,1.41.29,2.92,2.92,0,0,1,1.06.78,3.7,3.7,0,0,1,.67,1.18,4.48,4.48,0,0,1,.24,1.49,4.74,4.74,0,0,1-.25,1.54,3.55,3.55,0,0,1-.7,1.18,3,3,0,0,1-1.07.76,3.37,3.37,0,0,1-1.36.28,3.32,3.32,0,0,1-1.53-.33,3.09,3.09,0,0,1-1.06-.86,3.49,3.49,0,0,1-.61-1.2,4.57,4.57,0,0,1-.2-1.36,4.44,4.44,0,0,1,.23-1.47,3.77,3.77,0,0,1,.68-1.19,3.31,3.31,0,0,1,1.08-.8A3.38,3.38,0,0,1,116.71,36.86Zm-.06,1.07a1.9,1.9,0,0,0-.86.19,2.12,2.12,0,0,0-.66.54,2.55,2.55,0,0,0-.42.84,3.4,3.4,0,0,0-.16,1.08,3.62,3.62,0,0,0,.15,1.06,2.93,2.93,0,0,0,.42.87,2,2,0,0,0,.68.57,2,2,0,0,0,.94.21,1.87,1.87,0,0,0,.77-.16,1.81,1.81,0,0,0,.67-.48,2.77,2.77,0,0,0,.47-.83,3.51,3.51,0,0,0,.18-1.19,3.66,3.66,0,0,0-.13-1,2.68,2.68,0,0,0-.38-.86,1.94,1.94,0,0,0-1.67-.84Z"/><path class="cls-1" d="M121.72,44.21c-.06,0-.09,0-.09-.11V38.57c0-.33,0-.62,0-.88s0-.45,0-.59a.08.08,0,0,1,.09-.09h.93a.14.14,0,0,1,.12.08,1.8,1.8,0,0,1,.05.32c0,.14,0,.27,0,.39a3.13,3.13,0,0,1,2.22-.94,2.09,2.09,0,0,1,2,1.08,4.8,4.8,0,0,1,1.06-.77,3.12,3.12,0,0,1,1.41-.31,3.06,3.06,0,0,1,.84.13,2,2,0,0,1,.77.44,2.53,2.53,0,0,1,.57.87,3.93,3.93,0,0,1,.22,1.39v4.43c0,.06,0,.09-.11.09h-1c-.07,0-.1,0-.1-.11V39.78a2.27,2.27,0,0,0-.36-1.29,1.32,1.32,0,0,0-1.15-.53,2.28,2.28,0,0,0-1,.23,2.54,2.54,0,0,0-.8.63c0,.09,0,.22,0,.41a4.87,4.87,0,0,1,0,.54V44.1c0,.07,0,.11-.1.11h-1c-.07,0-.1,0-.1-.11V39.74a2,2,0,0,0-.38-1.31,1.34,1.34,0,0,0-1.1-.47,2.2,2.2,0,0,0-.94.2,2.91,2.91,0,0,0-.85.63v5.33a.08.08,0,0,1-.09.09Z"/><path class="cls-1" d="M136.7,36.86a3.76,3.76,0,0,1,1.46.27,3.21,3.21,0,0,1,1.09.73,3.29,3.29,0,0,1,.68,1.11,3.94,3.94,0,0,1,.23,1.39,4,4,0,0,1-.36,1.76,3.64,3.64,0,0,1-1,1.25,4,4,0,0,1-1.36.74,4.88,4.88,0,0,1-1.55.25l-.42,0-.34,0v3c0,.06,0,.09-.07.1l-.3,0-.34,0-.3,0H134c-.05,0-.07,0-.07-.09V38.17c0-.07,0-.17,0-.31s0-.25,0-.34a.06.06,0,0,1,0-.06c.25-.1.62-.23,1.09-.37A5.55,5.55,0,0,1,136.7,36.86Zm-.15,1.08a4,4,0,0,0-.72.06,3.57,3.57,0,0,0-.66.18v5a1.84,1.84,0,0,0,.42.08H136a3.49,3.49,0,0,0,1-.17,2.75,2.75,0,0,0,.93-.52,2.48,2.48,0,0,0,.65-.89,3,3,0,0,0,.26-1.28,2.58,2.58,0,0,0-.62-1.81A2.24,2.24,0,0,0,136.55,37.94Z"/><path class="cls-1" d="M146.8,43v.36a2.07,2.07,0,0,0,0,.35.06.06,0,0,1,0,.06,5.81,5.81,0,0,1-1.46.51,7.36,7.36,0,0,1-1.31.13,3.85,3.85,0,0,1-1.1-.15,2.74,2.74,0,0,1-.87-.44,2,2,0,0,1-.58-.72,2.32,2.32,0,0,1-.2-1,1.92,1.92,0,0,1,.25-1,2.29,2.29,0,0,1,.71-.71,3.37,3.37,0,0,1,1-.41,5.91,5.91,0,0,1,1.3-.13h.66l.36,0v-.36a1.91,1.91,0,0,0-.06-.43,1.21,1.21,0,0,0-.24-.48,1.47,1.47,0,0,0-.5-.4,2,2,0,0,0-.87-.17,4.19,4.19,0,0,0-1,.12,4,4,0,0,0-.86.32c-.07,0-.11,0-.11-.07v-.9a.14.14,0,0,1,.08-.12,4.16,4.16,0,0,1,1-.33,5.31,5.31,0,0,1,1.14-.12,3,3,0,0,1,1.22.23,2,2,0,0,1,.83.6,2.4,2.4,0,0,1,.47.88,3.4,3.4,0,0,1,.16,1.08Zm-1.2-2.18-.4,0-.58,0a2.94,2.94,0,0,0-1.6.35,1.09,1.09,0,0,0-.53,1,1.37,1.37,0,0,0,.09.49,1,1,0,0,0,.3.42,1.6,1.6,0,0,0,.55.3,2.76,2.76,0,0,0,.82.11,3.49,3.49,0,0,0,1.35-.25Z"/><path class="cls-1" d="M148.87,38.69c0-.13,0-.28,0-.43s0-.32,0-.46,0-.29,0-.42a1.7,1.7,0,0,0,0-.28.08.08,0,0,1,.09-.09h.92a.14.14,0,0,1,.13.09,1.54,1.54,0,0,1,.05.3c0,.13,0,.27,0,.44a3.12,3.12,0,0,1,2.27-1,3,3,0,0,1,.82.12,1.93,1.93,0,0,1,.77.44,2.27,2.27,0,0,1,.59.87,3.85,3.85,0,0,1,.23,1.43V44.1a.1.1,0,0,1-.1.11h-1c-.07,0-.1,0-.1-.12V39.84a2.33,2.33,0,0,0-.37-1.36A1.33,1.33,0,0,0,152,38a2.23,2.23,0,0,0-1,.24,2.57,2.57,0,0,0-.82.66V44.1c0,.07,0,.11-.09.11h-1c-.06,0-.09,0-.09-.11Z"/><path class="cls-1" d="M157,37a.11.11,0,0,1,.1.08q.45,1.23.81,2.16l.6,1.61c.16.46.3.83.4,1.13s.18.54.23.71l.84-2.36,1.16-3.25a.14.14,0,0,1,.12-.08h1.05c.07,0,.09,0,.06.11q-.42,1.2-.9,2.49c-.32.86-.65,1.73-1,2.61s-.69,1.74-1.05,2.6-.72,1.68-1.08,2.47a.18.18,0,0,1-.16.1l-1.11.09c-.06,0-.07,0-.05-.12q.33-.68.72-1.53l.75-1.74a.21.21,0,0,0,0-.19l-.27-.65c-.11-.29-.25-.62-.4-1s-.32-.78-.5-1.22-.36-.88-.54-1.34l-.54-1.35c-.18-.44-.34-.85-.49-1.24,0-.06,0-.09.08-.09Z"/><polygon class="cls-1" points="22.05 0 22.05 36.69 31.42 29.21 31.42 5.09 22.05 0"/><polygon class="cls-1" points="17.69 28.68 10.12 31.98 10.12 3.18 17.69 5.43 17.69 28.68"/><polygon class="cls-1" points="0 27.83 5.77 26.32 5.77 7.91 0 7 0 27.83"/><polygon class="cls-1" points="62.32 5.09 54.33 18.21 46.23 5.09 41.96 5.09 41.96 29.21 45.99 29.21 45.99 11.6 54.23 24.84 62.5 11.5 62.5 29.21 66.49 29.21 66.49 5.09 62.32 5.09"/><path class="cls-1" d="M80,29.21,80,27a6.21,6.21,0,0,1-5.27,2.58c-3.07,0-5.2-2-5.2-4.86,0-3.13,2-5,6-5.61l4.37-.69v-.28c0-1.79-1.34-2.79-3.65-2.79a8.38,8.38,0,0,0-5.72,2.41V13.91a9.4,9.4,0,0,1,6-2c4.72,0,7.26,2.42,7.26,6.45V29.21Zm-4.34-2.83a3.9,3.9,0,0,0,4.21-3.92v-.93l-3.76.62c-1.82.31-2.75,1.1-2.75,2.3a2,2,0,0,0,2.3,1.93"/><path class="cls-1" d="M97,16.15a2.35,2.35,0,0,0-1-.14c-2.93,0-4.72,2.28-4.72,5.76v7.44h-4V12.33h3.93v2.89a5.42,5.42,0,0,1,5-3.24c.44,0,.68,0,.75.11Z"/><polygon class="cls-1" points="99.53 5.09 99.53 29.21 103.49 29.21 103.49 22.52 104.35 21.73 110.38 29.21 115.27 29.21 107.38 19.66 114.72 12.33 109.83 12.33 103.49 18.7 103.49 5.09 99.53 5.09"/><path class="cls-1" d="M130.28,27.83a12.27,12.27,0,0,1-6.51,1.79c-5.58,0-9.1-3.79-9.1-8.89s3.52-8.82,8.48-8.82,8.09,3.72,8.09,8.72a6.28,6.28,0,0,1-.1,1.38h-12.5c.31,2.34,2.23,4.2,5.4,4.2a10.34,10.34,0,0,0,6.24-2.27ZM127.35,19a4.13,4.13,0,0,0-4.27-3.89A4.54,4.54,0,0,0,118.64,19Z"/><path class="cls-1" d="M141.29,26a3.14,3.14,0,0,0,1.86-.52V29a6.1,6.1,0,0,1-3,.62c-3.41,0-5.41-2.07-5.41-5.61V15.7h-3l7-8.86v5.49h4.47V15.7h-4.47v7.58c0,1.9.82,2.69,2.61,2.69"/><path class="cls-1" d="M162.34,20.77a9,9,0,0,1-18,0,9,9,0,0,1,18,0m-14,0a5,5,0,1,0,10.06,0,5,5,0,1,0-10.06,0"/><g id="Layer_2-2" data-name="Layer 2"><g class="cls-2"><path class="cls-1" d="M162.46,9h3v.67h-1.16v3.53h-.73V9.62h-1.16Z"/><path class="cls-1" d="M167.12,10.09v3.06h-.7V9h.74l1.41,2.14L170,9h.73v4.2H170V10.07L168.73,12h-.35Z"/></g></g></g></g></svg>